<?xml version="1.0" encoding="utf-8"?>
<!-- Generator: Adobe Illustrator 16.0.0, SVG Export Plug-In . SVG Version: 6.00 Build 0)  -->
<!DOCTYPE svg PUBLIC "-//W3C//DTD SVG 1.1//EN" "http://www.w3.org/Graphics/SVG/1.1/DTD/svg11.dtd">
<svg version="1.1" id="Layer_1" xmlns="http://www.w3.org/2000/svg" xmlns:xlink="http://www.w3.org/1999/xlink" x="0px" y="0px"
	 width="164px" height="166px" viewBox="214.43 272.895 164 166" enable-background="new 214.43 272.895 164 166"
	 xml:space="preserve">
<g>
	<path fill="#626363" d="M295.598,286.974c39.135,0.643,70.34,32.889,69.703,72.02c-0.637,39.135-32.876,70.335-72.012,69.693
		c-39.134-0.643-70.339-32.885-69.701-72.019C224.225,317.536,256.463,286.331,295.598,286.974z"/>
	<path fill="#FFFFFF" d="M303.43,335.895l9.132,0.15l0.219-13.49l-10.735-0.176l0,0.048c-13.015,0.247-15.799,7.515-16.16,15.19
		l-0.026,0l-0.11,6.736l-8.856-0.145l-0.216,13.21l8.857,0.145l-0.577,35.411l13.349,0.219l0.577-35.411l10.934,0.18l2.328-13.175
		l-13.042-0.214l0.066-4.07C299.212,337.908,300.973,335.855,303.43,335.895z"/>
</g>
</svg>
