<svg id="Logo" xmlns="http://www.w3.org/2000/svg" viewBox="0 0 1417.32 1417.32"><defs><style>.cls-1{fill:#ff6b35;}.cls-2{fill:#ff9a75;}.cls-3{fill:#f9d7ca;}.cls-4{fill:#ff5e23;}</style></defs><title>logo</title><g id="Pétales"><g id="Foncé"><path class="cls-1" d="M715.87,484.7c5.38-55.87,13.31-116.49,18.95-152.09a247.93,247.93,0,0,1,5.37-25.34c-4.45-45-19.5-70.65-24.18-70.65-4.13,0-19.46,26.5-24.1,70.64,2,7.8,3.84,16.25,5.28,25.35C702.82,368.21,710.59,428.82,715.87,484.7Z"/><path class="cls-1" d="M716.13,743.29c-5.38,55.87-13.31,116.49-18.95,152.09a247.94,247.94,0,0,1-5.37,25.34c4.45,45,19.5,70.65,24.18,70.65,4.13,0,19.46-26.5,24.1-70.64-2-7.8-3.84-16.25-5.28-25.35C729.18,859.78,721.41,799.16,716.13,743.29Z"/><path class="cls-1" d="M1093.38,614c0-4.13-26.5-19.46-70.64-24.1-7.8,2-16.25,3.84-25.35,5.28-35.6,5.64-96.21,13.41-152.09,18.68,55.87,5.38,116.49,13.31,152.09,18.95a247.92,247.92,0,0,1,25.34,5.37C1067.71,633.73,1093.38,618.67,1093.38,614Z"/><path class="cls-1" d="M586.71,614.13c-55.87-5.38-116.49-13.31-152.09-18.95a247.91,247.91,0,0,1-25.34-5.37c-45,4.45-70.65,19.5-70.65,24.18,0,4.13,26.5,19.46,70.64,24.1,7.8-2,16.25-3.84,25.35-5.28C470.21,627.17,530.83,619.4,586.71,614.13Z"/><path class="cls-1" d="M807.33,522.48c43.31-35.7,91.78-73,120.94-94.15A247.89,247.89,0,0,1,950,414.2c28.67-35,36.17-63.75,32.86-67.06-2.92-2.92-32.5,5-67,32.91-4.07,7-8.77,14.21-14.19,21.66C880.48,430.88,843.11,479.23,807.33,522.48Z"/><path class="cls-1" d="M624.67,705.51c-43.31,35.7-91.78,73-120.94,94.15A247.92,247.92,0,0,1,482,813.78c-28.67,35-36.17,63.75-32.86,67.06,2.92,2.92,32.5-5,67-32.91,4.07-7,8.77-14.21,14.19-21.66C551.52,797.11,588.89,748.75,624.67,705.51Z"/><path class="cls-1" d="M807.52,705.32c35.7,43.31,73,91.78,94.15,120.94A247.89,247.89,0,0,1,915.79,848c35,28.67,63.75,36.17,67.06,32.86,2.92-2.92-5-32.5-32.91-67-7-4.07-14.21-8.77-21.66-14.19C899.12,778.47,850.76,741.1,807.52,705.32Z"/><path class="cls-1" d="M624.48,522.66c-35.7-43.31-73-91.78-94.15-120.94A247.87,247.87,0,0,1,516.21,380c-35-28.67-63.75-36.17-67.06-32.86-2.92,2.92,5,32.5,32.91,67,7,4.07,14.21,8.77,21.66,14.19C532.88,449.51,581.24,486.88,624.48,522.66Z"/><path class="cls-1" d="M695.64,486.31c-3.43-56-5.08-117.13-5.08-153.18a247.87,247.87,0,0,1,1.34-25.87c-11.43-43.74-30.31-66.73-34.94-66-4.08.65-15.08,29.21-12.75,73.54,3.23,7.38,6.34,15.45,9.18,24.21C664.54,373.29,681.69,431.95,695.64,486.31Z"/><path class="cls-1" d="M736.36,741.67c3.43,56,5.08,117.13,5.08,153.18a247.91,247.91,0,0,1-1.34,25.87c11.43,43.74,30.31,66.73,34.94,66,4.08-.65,15.08-29.21,12.75-73.54-3.23-7.38-6.34-15.45-9.18-24.21C767.47,854.69,750.31,796,736.36,741.67Z"/><path class="cls-1" d="M843.68,593.64c56-3.43,117.13-5.08,153.18-5.08a247.9,247.9,0,0,1,25.87,1.34c43.74-11.43,66.73-30.31,66-34.94-0.65-4.08-29.21-15.08-73.54-12.75-7.38,3.23-15.45,6.34-24.21,9.18C956.7,562.53,898,579.68,843.68,593.64Z"/><path class="cls-1" d="M588.32,634.35c-56,3.43-117.13,5.08-153.18,5.08a247.9,247.9,0,0,1-25.87-1.34c-43.74,11.43-66.73,30.31-66,34.94,0.65,4.08,29.21,15.08,73.54,12.75,7.38-3.23,15.45-6.34,24.21-9.18C475.3,665.46,534,648.3,588.32,634.35Z"/><path class="cls-1" d="M791.89,509.32c37.19-42,79.24-86.42,104.73-111.91a247.89,247.89,0,0,1,19.24-17.35c22.84-39,25.75-68.62,22-71.37-3.34-2.43-31.32,10-61,43-2.93,7.51-6.44,15.4-10.63,23.61C849.81,407.4,820.46,461,791.89,509.32Z"/><path class="cls-1" d="M640.11,718.67c-37.19,42-79.24,86.42-104.73,111.91a247.94,247.94,0,0,1-19.24,17.35c-22.84,39-25.75,68.62-22,71.37,3.34,2.43,31.32-10,61-43,2.93-7.51,6.44-15.4,10.63-23.61C582.19,820.59,611.54,767,640.11,718.67Z"/><path class="cls-1" d="M820.68,689.88c42,37.19,86.42,79.24,111.91,104.73a247.88,247.88,0,0,1,17.35,19.24c39,22.84,68.62,25.75,71.37,22,2.43-3.34-10-31.32-43-61-7.51-2.93-15.4-6.44-23.61-10.63C922.59,747.8,869,718.46,820.68,689.88Z"/><path class="cls-1" d="M611.32,538.1c-42-37.19-86.42-79.24-111.91-104.73a247.89,247.89,0,0,1-17.35-19.24c-39-22.84-68.62-25.75-71.37-22-2.43,3.34,10,31.32,43,61,7.51,2.93,15.4,6.44,23.61,10.63C509.41,480.18,563,509.53,611.32,538.1Z"/><path class="cls-1" d="M675.92,491.07c-12.15-54.8-23.34-114.9-29-150.5a247.89,247.89,0,0,1-2.73-25.76c-18.13-41.41-40.38-61.17-44.83-59.72-3.93,1.28-10.32,31.21-1.09,74.63,4.35,6.79,8.67,14.27,12.86,22.48C627.52,384.31,653.63,439.56,675.92,491.07Z"/><path class="cls-1" d="M756.08,736.92c12.15,54.8,23.34,114.9,29,150.5a247.94,247.94,0,0,1,2.73,25.76c18.13,41.41,40.38,61.17,44.83,59.72,3.93-1.28,10.32-31.21,1.09-74.63-4.35-6.79-8.67-14.27-12.86-22.48C804.49,843.68,778.37,788.43,756.08,736.92Z"/><path class="cls-1" d="M838.92,573.91c54.8-12.15,114.9-23.34,150.5-29a247.91,247.91,0,0,1,25.76-2.73c41.41-18.13,61.17-40.38,59.72-44.83-1.28-3.93-31.21-10.32-74.63-1.09-6.79,4.35-14.27,8.67-22.48,12.86C945.69,525.51,890.44,551.63,838.92,573.91Z"/><path class="cls-1" d="M593.08,654.07c-54.8,12.15-114.9,23.34-150.5,29a247.9,247.9,0,0,1-25.76,2.73c-41.41,18.13-61.17,40.38-59.72,44.83,1.28,3.93,31.21,10.32,74.63,1.09,6.79-4.35,14.27-8.67,22.48-12.86C486.32,702.48,541.57,676.36,593.08,654.07Z"/><path class="cls-1" d="M774.58,498.73c30.16-47.34,64.74-97.75,85.93-126.91a247.91,247.91,0,0,1,16.29-20.14c16.46-42.1,14.7-71.8,10.53-73.93-3.68-1.88-29.37,14.77-53.54,52-1.72,7.87-4,16.22-6.8,25C815.84,389,795.25,446.55,774.58,498.73Z"/><path class="cls-1" d="M657.42,729.25c-30.16,47.34-64.74,97.75-85.93,126.91a247.87,247.87,0,0,1-16.29,20.14c-16.46,42.1-14.7,71.8-10.53,73.93,3.68,1.88,29.37-14.77,53.54-52,1.72-7.87,4-16.22,6.8-25C616.16,839,636.76,781.44,657.42,729.25Z"/><path class="cls-1" d="M831.26,672.57C878.6,702.73,929,737.31,958.17,758.5a247.9,247.9,0,0,1,20.14,16.29c42.1,16.46,71.8,14.7,73.93,10.53,1.88-3.68-14.77-29.37-52-53.54-7.87-1.72-16.22-4-25-6.8C941,713.84,883.45,693.24,831.26,672.57Z"/><path class="cls-1" d="M600.74,555.41C553.4,525.25,503,490.67,473.83,469.48a247.86,247.86,0,0,1-20.14-16.29c-42.1-16.46-71.8-14.7-73.93-10.53-1.88,3.68,14.77,29.37,52,53.54,7.87,1.72,16.22,4,25,6.8C491,514.15,548.56,534.75,600.74,555.41Z"/><path class="cls-1" d="M657.19,498.85C636.61,446.63,616.16,389,605,354.74a247.88,247.88,0,0,1-6.72-25c-24.39-38.06-49.45-54.1-53.62-52-3.68,1.88-5.31,32.44,10.6,73.88,5.36,6,10.8,12.73,16.21,20.19C592.67,401,627.11,451.46,657.19,498.85Z"/><path class="cls-1" d="M774.82,729.13c20.57,52.23,41,109.83,52.16,144.12a247.92,247.92,0,0,1,6.72,25c24.39,38.06,49.45,54.1,53.62,52,3.68-1.88,5.31-32.44-10.6-73.88-5.36-6-10.8-12.73-16.21-20.19C839.33,827,804.89,776.52,774.82,729.13Z"/><path class="cls-1" d="M831.14,555.18C883.37,534.6,941,514.15,975.26,503a247.91,247.91,0,0,1,25-6.72c38.06-24.39,54.1-49.45,52-53.62-1.88-3.68-32.44-5.31-73.88,10.6-6,5.36-12.73,10.8-20.19,16.21C929,490.67,878.53,525.11,831.14,555.18Z"/><path class="cls-1" d="M600.86,672.81C548.64,693.38,491,713.83,456.74,725a247.9,247.9,0,0,1-25,6.72c-38.06,24.39-54.1,49.45-52,53.62,1.88,3.68,32.44,5.31,73.88-10.6,6-5.36,12.73-10.8,20.19-16.21C503,737.32,553.47,702.88,600.86,672.81Z"/><path class="cls-1" d="M755.83,491c22.38-51.48,48.65-106.67,65-138.79a247.92,247.92,0,0,1,12.93-22.44c9.67-44.16,3.29-73.22-1.17-74.67-3.93-1.28-26.7,19.18-44.75,59.74-0.47,8-1.37,16.64-2.81,25.74C779.42,376.16,768.08,436.21,755.83,491Z"/><path class="cls-1" d="M676.17,737c-22.38,51.48-48.65,106.67-65,138.79a247.88,247.88,0,0,1-12.93,22.44c-9.67,44.16-3.29,73.22,1.17,74.67,3.93,1.28,26.7-19.18,44.75-59.74,0.47-8,1.37-16.64,2.81-25.74C652.58,851.82,663.93,791.77,676.17,737Z"/><path class="cls-1" d="M839,653.82c51.48,22.38,106.67,48.65,138.79,65a247.89,247.89,0,0,1,22.44,12.93c44.16,9.67,73.22,3.29,74.67-1.17,1.28-3.93-19.18-26.7-59.74-44.75-8-.47-16.64-1.37-25.74-2.81C953.83,677.41,893.78,666.07,839,653.82Z"/><path class="cls-1" d="M593,574.17c-51.48-22.38-106.67-48.65-138.79-65a247.9,247.9,0,0,1-22.44-12.93c-44.16-9.67-73.22-3.29-74.67,1.17-1.28,3.93,19.18,26.7,59.74,44.75,8,0.47,16.64,1.37,25.74,2.81C478.17,550.57,538.22,561.92,593,574.17Z"/><path class="cls-1" d="M639.9,509.47c-28.49-48.37-57.7-102.06-74.07-134.18a247.92,247.92,0,0,1-10.55-23.66c-30-33.78-57.3-45.7-61.09-42.94-3.34,2.43-.17,32.88,22,71.32,6.23,5.11,12.66,10.89,19.17,17.4C560.87,422.89,602.78,467.37,639.9,509.47Z"/><path class="cls-1" d="M792.1,718.51c28.49,48.37,57.7,102.06,74.07,134.18a247.93,247.93,0,0,1,10.55,23.66c30,33.78,57.3,45.7,61.09,42.94,3.34-2.43.17-32.88-22-71.32-6.23-5.11-12.66-10.89-19.17-17.4C871.13,805.09,829.22,760.62,792.1,718.51Z"/><path class="cls-1" d="M820.52,537.89c48.37-28.49,102.06-57.7,134.18-74.07a247.92,247.92,0,0,1,23.66-10.55c33.78-30,45.7-57.3,42.94-61.09-2.43-3.34-32.88-.17-71.32,22-5.11,6.23-10.89,12.66-17.4,19.17C907.1,458.86,862.63,500.78,820.52,537.89Z"/><path class="cls-1" d="M611.48,690.1c-48.37,28.49-102.06,57.7-134.18,74.07a247.9,247.9,0,0,1-23.66,10.55c-33.78,30-45.7,57.3-42.94,61.09,2.43,3.34,32.88.17,71.32-22,5.11-6.23,10.89-12.66,17.4-19.17C524.9,769.12,569.38,727.21,611.48,690.1Z"/><path class="cls-1" d="M736.1,486.27c14.05-54.34,31.37-113,42.51-147.25a248,248,0,0,1,9.26-24.19c2.64-45.13-8.21-72.83-12.83-73.56-4.08-.65-23.37,23.12-34.85,66,0.79,8,1.25,16.65,1.25,25.86C741.43,369.17,739.62,430.26,736.1,486.27Z"/><path class="cls-1" d="M695.91,741.71c-14.05,54.34-31.37,113-42.51,147.25a247.9,247.9,0,0,1-9.26,24.19c-2.64,45.13,8.21,72.83,12.83,73.56,4.08,0.65,23.37-23.12,34.85-66-0.79-8-1.25-16.65-1.25-25.86C690.57,858.82,692.38,797.73,695.91,741.71Z"/><path class="cls-1" d="M843.72,634.09c54.34,14.05,113,31.37,147.25,42.51a247.89,247.89,0,0,1,24.19,9.26c45.13,2.64,72.83-8.21,73.56-12.83,0.65-4.08-23.12-23.37-66-34.85-8,.79-16.65,1.25-25.86,1.25C960.82,639.43,899.74,637.62,843.72,634.09Z"/><path class="cls-1" d="M588.28,593.9c-54.34-14.05-113-31.37-147.25-42.51a247.9,247.9,0,0,1-24.19-9.26c-45.13-2.64-72.83,8.21-73.56,12.83-0.65,4.08,23.12,23.37,66,34.85,8-.79,16.65-1.25,25.86-1.25C471.18,588.56,532.26,590.37,588.28,593.9Z"/></g><g id="Moyen"><path class="cls-2" d="M695.64,486.31c5.84,22.75,11.12,44.75,15.16,63.9,1-19.55,2.81-42.12,5.06-65.52-5.28-55.88-13-116.5-18.68-152.09-1.44-9.1-3.24-17.55-5.28-25.35a247.87,247.87,0,0,0-1.34,25.87C690.57,369.18,692.22,430.29,695.64,486.31Z"/><path class="cls-2" d="M736.36,741.67c-5.84-22.75-11.12-44.75-15.16-63.9-1,19.55-2.81,42.12-5.06,65.52,5.28,55.88,13,116.5,18.68,152.09,1.44,9.1,3.24,17.55,5.28,25.35a247.91,247.91,0,0,0,1.34-25.87C741.43,858.81,739.79,797.7,736.36,741.67Z"/><path class="cls-2" d="M843.68,593.64c-22.75,5.84-44.75,11.12-63.9,15.16,19.55,1,42.12,2.81,65.52,5.06,55.88-5.28,116.5-13,152.09-18.68,9.1-1.44,17.55-3.24,25.35-5.28a247.9,247.9,0,0,0-25.87-1.34C960.81,588.56,899.71,590.21,843.68,593.64Z"/><path class="cls-2" d="M588.32,634.35c22.75-5.84,44.75-11.12,63.9-15.16-19.55-1-42.12-2.81-65.52-5.06-55.88,5.28-116.49,13-152.09,18.68-9.1,1.44-17.55,3.24-25.35,5.28a247.9,247.9,0,0,0,25.87,1.34C471.19,639.43,532.29,637.78,588.32,634.35Z"/><path class="cls-2" d="M791.89,509.32c-12,20.22-23.78,39.51-34.47,55.91,14.53-13.12,31.77-27.8,49.91-42.75,35.78-43.24,73.15-91.6,94.33-120.76,5.42-7.45,10.12-14.7,14.19-21.66a247.89,247.89,0,0,0-19.24,17.35C871.13,422.9,829.08,467.27,791.89,509.32Z"/><path class="cls-2" d="M640.11,718.67c12-20.22,23.78-39.51,34.47-55.91-14.53,13.12-31.77,27.8-49.91,42.75-35.78,43.24-73.15,91.6-94.33,120.76-5.42,7.45-10.12,14.7-14.19,21.66a247.94,247.94,0,0,0,19.24-17.35C560.88,805.09,602.92,760.71,640.11,718.67Z"/><path class="cls-2" d="M820.68,689.88c-20.22-12-39.51-23.78-55.91-34.47,13.12,14.53,27.8,31.77,42.75,49.91,43.24,35.78,91.6,73.15,120.76,94.33,7.45,5.42,14.7,10.12,21.66,14.19a247.88,247.88,0,0,0-17.35-19.24C907.1,769.12,862.72,727.08,820.68,689.88Z"/><path class="cls-2" d="M611.32,538.1c20.22,12,39.51,23.78,55.91,34.47-13.12-14.53-27.8-31.77-42.75-49.91-43.24-35.78-91.6-73.15-120.76-94.33-7.45-5.42-14.7-10.12-21.66-14.19a247.89,247.89,0,0,0,17.35,19.24C524.91,458.87,569.28,500.91,611.32,538.1Z"/><path class="cls-2" d="M675.92,491.07c9.33,21.56,18,42.46,25,60.74-2.07-19.47-3.81-42-5.25-65.5-14-54.36-31.11-113-42.25-147.3-2.85-8.76-5.95-16.83-9.18-24.21a247.89,247.89,0,0,0,2.73,25.76C652.58,376.17,663.77,436.27,675.92,491.07Z"/><path class="cls-2" d="M756.08,736.92c-9.33-21.56-18-42.46-25-60.74,2.07,19.47,3.81,42,5.25,65.5,14,54.36,31.11,113,42.25,147.3,2.85,8.76,5.95,16.83,9.18,24.21a247.94,247.94,0,0,0-2.73-25.76C779.42,851.81,768.23,791.72,756.08,736.92Z"/><path class="cls-2" d="M838.92,573.91c-21.56,9.33-42.46,18-60.74,25,19.47-2.07,42-3.81,65.5-5.25,54.36-14,113-31.11,147.3-42.25,8.76-2.85,16.83-5.95,24.21-9.18a247.91,247.91,0,0,0-25.76,2.73C953.82,550.58,893.73,561.76,838.92,573.91Z"/><path class="cls-2" d="M593.08,654.07c21.56-9.33,42.46-18,60.74-25-19.47,2.07-42,3.81-65.5,5.25-54.36,14-113,31.11-147.3,42.25-8.76,2.85-16.83,5.95-24.21,9.18a247.9,247.9,0,0,0,25.76-2.73C478.18,677.41,538.28,666.22,593.08,654.07Z"/><path class="cls-2" d="M774.58,498.73c-8.65,21.84-17.31,42.74-25.29,60.61,12.3-15.23,27-32.42,42.6-50,28.57-48.31,57.92-101.91,74.28-134,4.18-8.21,7.69-16.11,10.63-23.61a247.91,247.91,0,0,0-16.29,20.14C839.32,401,804.74,451.39,774.58,498.73Z"/><path class="cls-2" d="M657.42,729.25c8.65-21.84,17.31-42.74,25.29-60.61-12.3,15.23-27,32.42-42.6,50-28.57,48.31-57.92,101.91-74.28,134-4.18,8.21-7.69,16.11-10.63,23.61a247.87,247.87,0,0,0,16.29-20.14C592.68,827,627.26,776.59,657.42,729.25Z"/><path class="cls-2" d="M831.26,672.57c-21.84-8.65-42.74-17.31-60.61-25.29,15.23,12.3,32.42,27,50,42.6,48.31,28.57,101.91,57.92,134,74.28,8.21,4.18,16.11,7.69,23.61,10.63a247.9,247.9,0,0,0-20.14-16.29C929,737.31,878.6,702.73,831.26,672.57Z"/><path class="cls-2" d="M600.74,555.41c21.84,8.65,42.74,17.31,60.61,25.29-15.23-12.3-32.42-27-50-42.6-48.31-28.57-101.91-57.92-134-74.28-8.21-4.18-16.11-7.69-23.61-10.63a247.86,247.86,0,0,0,20.14,16.29C503,490.67,553.4,525.25,600.74,555.41Z"/><path class="cls-2" d="M657.19,498.85c12.59,19.84,24.4,39.13,34.17,56.09C686.27,536,681,514,675.92,491.07c-22.29-51.51-48.41-106.76-64.77-138.87-4.18-8.21-8.51-15.69-12.86-22.48a247.88,247.88,0,0,0,6.72,25C616.16,389,636.61,446.63,657.19,498.85Z"/><path class="cls-2" d="M774.82,729.13C762.23,709.3,750.41,690,740.65,673c5.09,18.91,10.34,40.92,15.43,63.87,22.29,51.51,48.41,106.76,64.77,138.87,4.18,8.21,8.51,15.69,12.86,22.48a247.92,247.92,0,0,0-6.72-25C815.84,839,795.39,781.36,774.82,729.13Z"/><path class="cls-2" d="M831.14,555.18c-19.84,12.59-39.13,24.4-56.09,34.17C794,584.26,816,579,838.92,573.91c51.51-22.29,106.76-48.41,138.87-64.77,8.21-4.18,15.69-8.51,22.48-12.86a247.91,247.91,0,0,0-25,6.72C941,514.15,883.37,534.6,831.14,555.18Z"/><path class="cls-2" d="M600.86,672.81C620.7,660.22,640,648.4,657,638.64,638,643.73,616,649,593.08,654.07c-51.51,22.29-106.76,48.41-138.87,64.77-8.21,4.18-15.69,8.51-22.48,12.86a247.9,247.9,0,0,0,25-6.72C491,713.83,548.64,693.38,600.86,672.81Z"/><path class="cls-2" d="M755.83,491c-5.13,22.93-10.41,44.92-15.5,63.82,9.77-17,21.62-36.25,34.25-56.08,20.67-52.18,41.26-109.72,52.4-144,2.85-8.76,5.08-17.11,6.8-25a247.92,247.92,0,0,0-12.93,22.44C804.48,384.32,778.21,439.51,755.83,491Z"/><path class="cls-2" d="M676.17,737c5.13-22.93,10.41-44.92,15.5-63.82-9.77,17-21.62,36.25-34.25,56.08-20.67,52.18-41.26,109.72-52.4,144-2.85,8.76-5.08,17.11-6.8,25a247.88,247.88,0,0,0,12.93-22.44C627.52,843.67,653.79,788.47,676.17,737Z"/><path class="cls-2" d="M839,653.82c-22.93-5.13-44.92-10.41-63.82-15.5,17,9.77,36.25,21.62,56.08,34.25,52.18,20.67,109.72,41.26,144,52.4,8.76,2.85,17.11,5.08,25,6.8a247.89,247.89,0,0,0-22.44-12.93C945.68,702.47,890.48,676.2,839,653.82Z"/><path class="cls-2" d="M593,574.17c22.93,5.13,44.92,10.41,63.82,15.5-17-9.77-36.25-21.62-56.08-34.25-52.18-20.67-109.72-41.26-144-52.4-8.76-2.85-17.11-5.08-25-6.8a247.9,247.9,0,0,0,22.44,12.93C486.32,525.51,541.52,551.78,593,574.17Z"/><path class="cls-2" d="M624.48,522.66c18.1,15,35.3,29.67,49.83,42.79-10.68-16.41-22.48-35.72-34.41-56-37.11-42.1-79-86.58-104.51-112.06-6.51-6.51-12.94-12.29-19.17-17.4a247.87,247.87,0,0,0,14.13,21.71C551.53,430.88,588.78,479.35,624.48,522.66Z"/><path class="cls-2" d="M639.9,509.47c15.53,17.62,30.23,34.83,42.52,50.05-8-17.88-16.62-38.8-25.23-60.67-30.07-47.39-64.51-97.88-85.69-127-5.42-7.45-10.86-14.17-16.21-20.19a247.92,247.92,0,0,0,10.55,23.66C582.2,407.41,611.41,461.11,639.9,509.47Z"/><path class="cls-2" d="M807.52,705.32c-18.1-15-35.3-29.67-49.83-42.79,10.68,16.41,22.48,35.72,34.41,56,37.11,42.1,79,86.58,104.51,112.06,6.51,6.51,12.94,12.29,19.17,17.4a247.89,247.89,0,0,0-14.13-21.71C880.48,797.1,843.22,748.64,807.52,705.32Z"/><path class="cls-2" d="M792.1,718.51c-15.53-17.62-30.23-34.83-42.52-50.05,8,17.88,16.62,38.8,25.23,60.67,30.07,47.39,64.51,97.88,85.69,127,5.42,7.45,10.86,14.17,16.21,20.19a247.93,247.93,0,0,0-10.55-23.66C849.81,820.58,820.59,766.88,792.1,718.51Z"/><path class="cls-2" d="M807.33,522.48c-15,18.1-29.67,35.3-42.79,49.83,16.41-10.68,35.72-22.48,56-34.41,42.1-37.11,86.58-79,112.06-104.51,6.51-6.51,12.29-12.94,17.4-19.17a247.89,247.89,0,0,0-21.71,14.13C899.11,449.52,850.64,486.77,807.33,522.48Z"/><path class="cls-2" d="M820.52,537.89c-17.62,15.53-34.83,30.23-50.05,42.52,17.88-8,38.8-16.62,60.67-25.23,47.39-30.07,97.88-64.51,127-85.69,7.45-5.42,14.17-10.86,20.19-16.21a247.92,247.92,0,0,0-23.66,10.55C922.59,480.19,868.89,509.4,820.52,537.89Z"/><path class="cls-2" d="M624.67,705.51c15-18.1,29.67-35.3,42.79-49.83-16.41,10.68-35.72,22.48-56,34.41-42.1,37.11-86.58,79-112.06,104.51-6.51,6.51-12.29,12.94-17.4,19.17a247.92,247.92,0,0,0,21.71-14.13C532.89,778.47,581.36,741.21,624.67,705.51Z"/><path class="cls-2" d="M611.48,690.1c17.62-15.53,34.83-30.23,50.05-42.52-17.88,8-38.8,16.62-60.67,25.23-47.39,30.07-97.88,64.51-127,85.69-7.45,5.42-14.17,10.86-20.19,16.21a247.9,247.9,0,0,0,23.66-10.55C509.42,747.8,563.11,718.59,611.48,690.1Z"/><path class="cls-2" d="M715.87,484.7c2.21,23.39,4,45.94,5,65.49,4-19.15,9.36-41.16,15.25-63.92,3.53-56,5.34-117.1,5.34-153.14,0-9.21-.46-17.84-1.25-25.86a247.93,247.93,0,0,0-5.37,25.34C729.18,368.21,721.25,428.83,715.87,484.7Z"/><path class="cls-2" d="M736.1,486.27c-1.48,23.45-3.25,46-5.33,65.46,7-18.29,15.69-39.19,25.06-60.75,12.25-54.77,23.59-114.82,29.23-150.42,1.44-9.1,2.34-17.69,2.81-25.74A248,248,0,0,0,778.6,339C767.46,373.3,750.15,431.93,736.1,486.27Z"/><path class="cls-2" d="M716.13,743.29c-2.21-23.39-4-45.94-5-65.49-4,19.15-9.36,41.16-15.25,63.92-3.53,56-5.34,117.1-5.34,153.14,0,9.21.46,17.84,1.25,25.86a247.94,247.94,0,0,0,5.37-25.34C702.82,859.77,710.75,799.16,716.13,743.29Z"/><path class="cls-2" d="M695.91,741.71c1.48-23.45,3.26-46,5.33-65.46-7,18.29-15.69,39.19-25.06,60.75-12.25,54.77-23.59,114.82-29.23,150.42-1.44,9.1-2.34,17.7-2.81,25.74A247.9,247.9,0,0,0,653.4,889C664.54,854.68,681.85,796.06,695.91,741.71Z"/><path class="cls-2" d="M845.29,613.86c-23.39,2.21-45.94,4-65.49,5,19.15,4,41.16,9.36,63.92,15.25,56,3.53,117.1,5.34,153.14,5.34,9.21,0,17.84-.46,25.86-1.25a247.92,247.92,0,0,0-25.34-5.37C961.78,627.17,901.17,619.24,845.29,613.86Z"/><path class="cls-2" d="M843.72,634.09c-23.45-1.48-46-3.25-65.46-5.33,18.29,7,39.19,15.69,60.75,25.06,54.77,12.25,114.82,23.59,150.42,29.23,9.1,1.44,17.7,2.34,25.74,2.81A247.89,247.89,0,0,0,991,676.6C956.69,665.46,898.07,648.14,843.72,634.09Z"/><path class="cls-2" d="M586.71,614.13c23.39-2.21,45.94-4,65.49-5-19.15-4-41.16-9.36-63.92-15.25-56-3.53-117.1-5.34-153.14-5.34-9.21,0-17.84.46-25.86,1.25a247.91,247.91,0,0,0,25.34,5.37C470.22,600.82,530.84,608.75,586.71,614.13Z"/><path class="cls-2" d="M588.28,593.9c23.45,1.48,46,3.25,65.46,5.33-18.29-7-39.19-15.69-60.75-25.06-54.77-12.25-114.82-23.59-150.42-29.23-9.1-1.44-17.7-2.34-25.74-2.81A247.9,247.9,0,0,0,441,551.39C475.31,562.53,533.94,579.84,588.28,593.9Z"/></g><g id="Claire"><path class="cls-3" d="M710.81,550.22c-4-19.15-9.32-41.15-15.16-63.9,1.44,23.46,3.18,46,5.25,65.5,3.47,9.08,6.53,17.51,9.06,25C710,568.9,710.31,559.93,710.81,550.22Z"/><path class="cls-3" d="M721.2,677.77c4,19.15,9.32,41.15,15.16,63.9-1.44-23.46-3.18-46-5.25-65.5-3.47-9.08-6.53-17.51-9.06-25C722,659.08,721.69,668.05,721.2,677.77Z"/><path class="cls-3" d="M779.78,608.8c19.15-4,41.15-9.32,63.9-15.16-23.46,1.44-46,3.18-65.5,5.25-9.08,3.47-17.51,6.53-25,9.06C761.09,608,770.06,608.3,779.78,608.8Z"/><path class="cls-3" d="M652.23,619.19c-19.15,4-41.15,9.32-63.9,15.16,23.46-1.44,46-3.18,65.5-5.25,9.08-3.47,17.51-6.53,25-9.06C670.91,620,661.94,619.69,652.23,619.19Z"/><path class="cls-3" d="M757.42,565.22c10.68-16.4,22.51-35.69,34.47-55.91-15.58,17.61-30.3,34.8-42.6,50-4,8.87-7.76,17-11.31,24.12C743.65,577.87,750.2,571.74,757.42,565.22Z"/><path class="cls-3" d="M674.58,662.76c-10.68,16.4-22.5,35.69-34.47,55.91,15.58-17.61,30.3-34.8,42.6-50,4-8.87,7.76-17,11.31-24.12C688.36,650.11,681.8,656.24,674.58,662.76Z"/><path class="cls-3" d="M764.77,655.42c16.4,10.68,35.69,22.51,55.91,34.47-17.61-15.58-34.8-30.3-50-42.6-8.87-4-17-7.76-24.12-11.31C752.12,641.64,758.25,648.19,764.77,655.42Z"/><path class="cls-3" d="M667.23,572.57c-16.4-10.68-35.69-22.51-55.91-34.47,17.61,15.58,34.8,30.3,50,42.6,8.87,4,17,7.76,24.12,11.31C679.88,586.35,673.75,579.79,667.23,572.57Z"/><path class="cls-3" d="M700.89,551.81c-7-18.28-15.64-39.18-25-60.74,5.09,23,10.34,45,15.43,63.87,4.85,8.42,9.19,16.27,12.86,23.32C703,570.4,701.92,561.49,700.89,551.81Z"/><path class="cls-3" d="M731.11,676.17c7,18.28,15.64,39.18,25,60.74-5.09-23-10.34-45-15.43-63.87-4.85-8.42-9.19-16.27-12.86-23.32C729,657.59,730.08,666.5,731.11,676.17Z"/><path class="cls-3" d="M778.18,598.89c18.28-7,39.18-15.64,60.74-25-23,5.09-45,10.34-63.87,15.43-8.42,4.85-16.27,9.19-23.32,12.86C759.6,601,768.5,599.91,778.18,598.89Z"/><path class="cls-3" d="M653.82,629.1c-18.28,7-39.18,15.64-60.74,25,23-5.09,45-10.34,63.87-15.43,8.42-4.85,16.27-9.19,23.32-12.86C672.41,627,663.5,628.07,653.82,629.1Z"/><path class="cls-3" d="M749.29,559.34c8-17.87,16.65-38.77,25.29-60.61-12.63,19.83-24.48,39.11-34.25,56.08-2.53,9.38-5,18-7.4,25.59C737.65,574,743.17,566.91,749.29,559.34Z"/><path class="cls-3" d="M682.72,668.64c-8,17.87-16.65,38.77-25.29,60.61,12.63-19.83,24.48-39.11,34.25-56.08,2.53-9.38,5-18,7.4-25.59C694.35,654,688.83,661.07,682.72,668.64Z"/><path class="cls-3" d="M770.65,647.28c17.87,8,38.77,16.65,60.61,25.29-19.83-12.63-39.11-24.48-56.08-34.25-9.38-2.53-18-5-25.59-7.4C756,635.65,763.08,641.16,770.65,647.28Z"/><path class="cls-3" d="M661.35,580.71c-17.87-8-38.77-16.65-60.61-25.29,19.83,12.63,39.11,24.48,56.08,34.25,9.38,2.53,18,5,25.59,7.4C676,592.34,668.92,586.82,661.35,580.71Z"/><path class="cls-3" d="M674.31,565.45c-14.53-13.12-31.73-27.81-49.83-42.79,15,18.14,29.63,35.37,42.75,49.91,8.14,5.3,15.57,10.33,22,14.94C684.65,581,679.62,573.6,674.31,565.45Z"/><path class="cls-3" d="M682.42,559.53c-12.3-15.23-27-32.43-42.52-50.05,11.93,20.25,23.73,39.57,34.41,56,7.21,6.51,13.77,12.63,19.44,18.21C690.19,576.54,686.39,568.41,682.42,559.53Z"/><path class="cls-3" d="M691.35,554.94c-9.76-17-21.58-36.25-34.17-56.09,8.62,21.87,17.25,42.8,25.23,60.67,6.11,7.56,11.62,14.63,16.35,21C696.37,573,693.88,564.34,691.35,554.94Z"/><path class="cls-3" d="M757.69,662.54c14.53,13.12,31.73,27.81,49.83,42.79-15-18.14-29.63-35.37-42.75-49.91-8.14-5.3-15.57-10.33-22-14.94C747.35,646.95,752.38,654.38,757.69,662.54Z"/><path class="cls-3" d="M749.58,668.46c12.3,15.23,27,32.43,42.52,50.05-11.93-20.25-23.73-39.57-34.41-56-7.21-6.51-13.77-12.63-19.44-18.21C741.81,651.45,745.62,659.58,749.58,668.46Z"/><path class="cls-3" d="M740.65,673c9.76,17,21.58,36.25,34.17,56.09-8.62-21.87-17.25-42.8-25.23-60.67-6.11-7.56-11.62-14.63-16.35-21C735.63,655,738.12,663.65,740.65,673Z"/><path class="cls-3" d="M764.54,572.3c13.12-14.53,27.81-31.73,42.79-49.83-18.14,15-35.37,29.63-49.91,42.75-5.3,8.14-10.33,15.57-14.94,22C749,582.64,756.39,577.61,764.54,572.3Z"/><path class="cls-3" d="M770.47,580.41c15.23-12.3,32.43-27,50.05-42.52-20.25,11.93-39.57,23.73-56,34.41-6.51,7.21-12.63,13.77-18.21,19.44C753.45,588.18,761.58,584.38,770.47,580.41Z"/><path class="cls-3" d="M775.05,589.34c17-9.76,36.25-21.58,56.09-34.17-21.87,8.62-42.8,17.25-60.67,25.23-7.56,6.11-14.63,11.62-21,16.35C757,594.36,765.65,591.87,775.05,589.34Z"/><path class="cls-3" d="M667.46,655.68c-13.12,14.53-27.81,31.73-42.79,49.83,18.14-15,35.37-29.63,49.91-42.75,5.3-8.14,10.33-15.57,14.94-22C683,645.34,675.61,650.37,667.46,655.68Z"/><path class="cls-3" d="M661.53,647.58c-15.23,12.3-32.43,27-50.05,42.52,20.25-11.93,39.57-23.73,56-34.41,6.51-7.21,12.63-13.77,18.21-19.44C678.55,639.8,670.42,643.61,661.53,647.58Z"/><path class="cls-3" d="M657,638.64c-17,9.76-36.25,21.58-56.09,34.17,21.87-8.62,42.8-17.25,60.67-25.23,7.56-6.11,14.63-11.62,21-16.35C675,633.63,666.35,636.11,657,638.64Z"/><path class="cls-3" d="M720.85,550.19c-1-19.55-2.77-42.1-5-65.49-2.25,23.4-4.06,46-5.06,65.52,2,9.51,3.71,18.31,5,26.16C717.14,568.52,718.83,559.71,720.85,550.19Z"/><path class="cls-3" d="M730.77,551.73c2.07-19.46,3.85-42,5.33-65.46C730.21,509,724.9,531,720.85,550.19c0.5,9.71.8,18.67,0.87,26.62C724.23,569.26,727.29,560.82,730.77,551.73Z"/><path class="cls-3" d="M740.33,554.81c5.09-18.9,10.38-40.9,15.5-63.82-9.37,21.56-18.06,42.46-25.06,60.75-1,9.66-2.13,18.56-3.3,26.43C731.13,571.1,735.47,563.24,740.33,554.81Z"/><path class="cls-3" d="M711.16,677.8c1,19.55,2.77,42.1,5,65.49,2.25-23.4,4.06-46,5.06-65.52-2-9.51-3.71-18.31-5-26.16C714.87,659.46,713.17,668.28,711.16,677.8Z"/><path class="cls-3" d="M701.23,676.25c-2.07,19.46-3.85,42-5.33,65.46,5.89-22.76,11.2-44.76,15.25-63.92-0.5-9.71-.8-18.67-0.87-26.62C707.77,658.73,704.71,667.17,701.23,676.25Z"/><path class="cls-3" d="M691.68,673.18c-5.09,18.9-10.38,40.9-15.5,63.82,9.37-21.56,18.06-42.46,25.06-60.75,1-9.66,2.13-18.56,3.3-26.43C700.87,656.89,696.53,664.74,691.68,673.18Z"/><path class="cls-3" d="M753.62,613.82c7.85,1.3,16.67,3,26.18,5,19.55-1,42.1-2.77,65.49-5-23.4-2.25-46-4.06-65.52-5.06C770.27,610.81,761.46,612.51,753.62,613.82Z"/><path class="cls-3" d="M778.26,628.76c19.46,2.07,42,3.85,65.46,5.33C821,628.2,799,622.89,779.8,618.84c-9.71.5-18.67,0.8-26.62,0.87C760.73,622.23,769.17,625.28,778.26,628.76Z"/><path class="cls-3" d="M775.18,638.32c18.9,5.09,40.9,10.38,63.82,15.5-21.56-9.37-42.46-18.06-60.75-25.06-9.66-1-18.56-2.13-26.43-3.3C758.9,629.12,766.75,633.46,775.18,638.32Z"/><path class="cls-3" d="M652.2,609.15c-19.55,1-42.1,2.77-65.49,5,23.4,2.25,46,4.06,65.52,5.06,9.51-2,18.31-3.71,26.16-5C670.53,612.86,661.72,611.16,652.2,609.15Z"/><path class="cls-3" d="M653.74,599.23c-19.46-2.07-42-3.85-65.46-5.33C611,599.78,633,605.1,652.2,609.15c9.71-.5,18.67-0.8,26.62-0.87C671.27,605.76,662.83,602.7,653.74,599.23Z"/><path class="cls-3" d="M656.82,589.67c-18.9-5.09-40.9-10.38-63.82-15.5,21.56,9.37,42.46,18.06,60.75,25.06,9.66,1,18.56,2.13,26.43,3.3C673.11,598.86,665.25,594.52,656.82,589.67Z"/></g></g><circle id="Centre" class="cls-3" cx="716" cy="613.99" r="65.23"/><g id="Vygie"><path class="cls-4" d="M407.58,1121.92H380.12l-41.5-101.57h30.14L394,1088.47l24.15-68.13H447Z"/><path class="cls-4" d="M501.93,1162v-52.85l-43.15-88.77h30.76l27,59.46,25-59.46h29.32l-40,88.82V1162H501.93Z"/><path class="cls-4" d="M597.1,1120.89c1.86,11.15,10.74,19.2,23.74,19.2,17.34,0,27-8.67,27-28.28v-7.43c-4.13,6.61-13.63,13-28.28,13-27,0-47.28-20.85-47.28-49.34,0-26.84,19.41-49.55,47.28-49.55,16.1,0,25.39,7,28.9,13.83v-12h26.43V1111c0,27.87-15.07,53.26-53.26,53.26-27.87,0-46.45-17.34-49.34-36.75ZM648.3,1068c0-15.69-10.74-25.6-23.95-25.6-13.63,0-24.36,9.91-24.36,25.6,0,15.9,10.12,25.81,24.36,25.81C638.39,1093.84,648.3,1083.73,648.3,1068Z"/><path class="cls-4" d="M702.8,1121.92V1020.35h27.46v101.57H702.8Z"/><path class="cls-4" d="M850.62,1092.81c-5.16,17.55-21.26,32.21-46.24,32.21-27.87,0-52.44-20-52.44-54.3,0-32.41,23.95-53.47,50-53.47,31.38,0,50.17,20,50.17,52.64,0,3.92-.41,8.05-0.41,8.46H779c0.62,13.42,12,23.12,25.6,23.12,12.8,0,19.82-6.4,23.12-15.48ZM825,1059.57c-0.41-10.12-7-20-22.71-20-14.25,0-22.09,10.74-22.71,20H825Z"/></g></svg>