<?xml version="1.0" encoding="utf-8"?>
<!-- Generator: Adobe Illustrator 19.2.1, SVG Export Plug-In . SVG Version: 6.00 Build 0)  -->
<svg version="1.1" xmlns="http://www.w3.org/2000/svg" xmlns:xlink="http://www.w3.org/1999/xlink" x="0px" y="0px"
	 viewBox="0 0 513.4 147" style="enable-background:new 0 0 513.4 147;" xml:space="preserve">
<style type="text/css">
	.st0{display:none;}
	.st1{fill:#FFFFFF;}
	.st2{fill:#FF6B35;}
	.st3{fill:#FF9A75;}
	.st4{fill:#F9D7CA;}
	.st5{fill:#FF5E23;}
</style>
<g id="Image" class="st0">
</g>
<g id="Logo">
	<g id="Vygie_9_">
		<path class="st5" d="M69,104.7H41.5L0,3.1h30.1l25.2,68.1L79.5,3.1h28.9L69,104.7z"/>
		<path class="st5" d="M163.3,144.7V91.9L120.2,3.1h30.8l27,59.5l25-59.5h29.3l-40,88.8v52.8H163.3z"/>
		<path class="st5" d="M258.5,103.6c1.9,11.1,10.7,19.2,23.7,19.2c17.3,0,27-8.7,27-28.3v-7.4c-4.1,6.6-13.6,13-28.3,13
			c-27,0-47.3-20.9-47.3-49.3c0-26.8,19.4-49.5,47.3-49.5c16.1,0,25.4,7,28.9,13.8v-12h26.4v90.6c0,27.9-15.1,53.3-53.3,53.3
			c-27.9,0-46.5-17.3-49.3-36.7L258.5,103.6z M309.7,50.8c0-15.7-10.7-25.6-23.9-25.6c-13.6,0-24.4,9.9-24.4,25.6
			c0,15.9,10.1,25.8,24.4,25.8C299.8,76.6,309.7,66.5,309.7,50.8z"/>
		<path class="st5" d="M364.2,104.7V3.1h27.5v101.6H364.2z"/>
		<path class="st5" d="M512,75.6c-5.2,17.5-21.3,32.2-46.2,32.2c-27.9,0-52.4-20-52.4-54.3c0-32.4,23.9-53.5,50-53.5
			c31.4,0,50.2,20,50.2,52.6c0,3.9-0.4,8.1-0.4,8.5h-72.7c0.6,13.4,12,23.1,25.6,23.1c12.8,0,19.8-6.4,23.1-15.5L512,75.6z
			 M486.4,42.3c-0.4-10.1-7-20-22.7-20c-14.2,0-22.1,10.7-22.7,20H486.4z"/>
	</g>
</g>
</svg>
