<?xml version="1.0" encoding="utf-8"?>
<!-- Generator: Adobe Illustrator 16.0.0, SVG Export Plug-In . SVG Version: 6.00 Build 0)  -->
<!DOCTYPE svg PUBLIC "-//W3C//DTD SVG 1.1//EN" "http://www.w3.org/Graphics/SVG/1.1/DTD/svg11.dtd">
<svg version="1.1" id="Layer_1" xmlns="http://www.w3.org/2000/svg" xmlns:xlink="http://www.w3.org/1999/xlink" x="0px" y="0px"
	 width="170px" height="156px" viewBox="167.43 122.895 170 156" enable-background="new 167.43 122.895 170 156"
	 xml:space="preserve">
<g>
	<path fill="#626363" d="M252.93,130.029c39.141,0,70.867,31.731,70.867,70.866c0,39.142-31.726,70.866-70.867,70.866
		c-39.141,0-70.866-31.726-70.866-70.866C182.064,161.76,213.789,130.029,252.93,130.029z"/>
	<path fill="#FFFFFF" d="M297.235,177.771c-3.095,1.338-6.428,2.236-9.922,2.645c3.57-2.078,6.307-5.359,7.597-9.279
		c-3.339,1.926-7.033,3.322-10.971,4.071c-3.149-3.255-7.636-5.289-12.605-5.289c-9.532,0-17.264,7.499-17.264,16.755
		c0,1.315,0.15,2.595,0.448,3.822c-14.351-0.699-27.08-7.375-35.592-17.513c-1.488,2.476-2.339,5.351-2.339,8.424
		c0,5.812,3.047,10.949,7.681,13.947c-2.835-0.088-5.493-0.836-7.826-2.099v0.212c0,8.122,5.953,14.896,13.853,16.436
		c-1.447,0.381-2.971,0.589-4.549,0.589c-1.111,0-2.192-0.102-3.247-0.301c2.198,6.661,8.575,11.506,16.135,11.64
		c-5.913,4.499-13.357,7.174-21.449,7.174c-1.395,0-2.769-0.08-4.124-0.234c7.65,4.757,16.721,7.534,26.478,7.534
		c31.766,0,49.137-25.547,49.137-47.693l-0.049-2.171C291.99,184.086,294.918,181.137,297.235,177.771z"/>
</g>
</svg>
